<svg width="24" height="24" viewBox="0 0 24 24" fill="none" xmlns="http://www.w3.org/2000/svg">
<path d="M8.9 9.05078L5.2 12.7008L3.1 10.6508L2 11.7508L5.2 14.9508L10 10.1508L8.9 9.05078ZM8.9 2.55078L5.2 6.20078L3.1 4.15078L2 5.25078L5.2 8.45078L10 3.65078L8.9 2.55078ZM8.9 15.5508L5.2 19.2008L3.1 17.1508L2 18.2508L5.2 21.4508L10 16.6508L8.9 15.5508Z" fill="#E68600"/>
<path d="M12 10.0117H22V12.0117H12V10.0117ZM12 3.51172H22V5.51172H12V3.51172Z" fill="#75B5E9"/>
<path d="M19.2551 15.5169C19.3961 15.3603 19.6373 15.3476 19.794 15.4886L20.6779 16.2841C21.0526 16.6213 21.3633 16.9009 21.5767 17.1546C21.8011 17.4213 21.9606 17.7078 21.9606 18.0616C21.9606 18.4153 21.8011 18.7019 21.5767 18.9686C21.3633 19.2222 21.0526 19.5019 20.6779 19.839L19.794 20.6346C19.6373 20.7755 19.3961 20.7628 19.2551 20.6062C19.1142 20.4495 19.1269 20.2083 19.2835 20.0673L20.1466 19.2906C20.5474 18.9298 20.8177 18.6854 20.9927 18.4773C21.1608 18.2776 21.1974 18.161 21.1974 18.0616C21.1974 17.9622 21.1608 17.8456 20.9927 17.6458C20.8177 17.4377 20.5474 17.1933 20.1466 16.8326L19.2835 16.0558C19.1269 15.9148 19.1142 15.6736 19.2551 15.5169Z" fill="#E68600"/>
<path d="M14.7065 16.0558C14.8632 15.9148 14.8759 15.6736 14.7349 15.5169C14.5939 15.3603 14.3527 15.3476 14.196 15.4886L13.3121 16.2841C12.9375 16.6213 12.6267 16.9009 12.4133 17.1546C12.189 17.4213 12.0295 17.7078 12.0295 18.0616C12.0295 18.4153 12.189 18.7019 12.4133 18.9686C12.6267 19.2222 12.9375 19.5019 13.3121 19.839L14.196 20.6346C14.3527 20.7755 14.5939 20.7628 14.7349 20.6062C14.8759 20.4495 14.8632 20.2083 14.7065 20.0673L13.8434 19.2906C13.4426 18.9298 13.1724 18.6854 12.9973 18.4773C12.8293 18.2776 12.7926 18.161 12.7926 18.0616C12.7926 17.9622 12.8293 17.8456 12.9973 17.6458C13.1724 17.4377 13.4426 17.1933 13.8434 16.8326L14.7065 16.0558Z" fill="#E68600"/>
<path opacity="0.5" d="M18.1049 13.9623C18.3084 14.0169 18.4292 14.2261 18.3747 14.4296L16.3531 21.9743C16.2986 22.1778 16.0893 22.2986 15.8858 22.2441C15.6822 22.1895 15.5614 21.9803 15.616 21.7767L17.6375 14.2321C17.6921 14.0286 17.9013 13.9078 18.1049 13.9623Z" fill="#75B5E9"/>
</svg>
